<svg width="89" height="114" viewBox="0 0 89 114" fill="none" xmlns="http://www.w3.org/2000/svg">
    <path d="M63.277 72.892L19.852 62.36L21.959 53.675L65.384 64.207L63.277 72.892Z" fill="white"/>
    <path d="M66.188 62.502L26.398 42.17L30.464 34.211L70.254 54.544L66.188 62.502Z" fill="white"/>
    <path d="M72.317 51.739L38.667 22.339L44.546 15.61L78.197 45.008L72.317 51.738" fill="white"/>
    <path d="M81.575 42.277L56.48 5.30601L63.876 0.286011L88.97 37.259L81.576 42.278" fill="white"/>
    <path d="M62.582 83.755L17.964 81.319L18.451 72.395L63.069 74.831L62.582 83.755" fill="white"/>
    <path d="M71.833 104.776V67.752H80.762L80.768 113.714H0L0.002 67.714H8.939V104.776H71.833Z" fill="white"/>
    <path d="M17.84 86.937H62.828V95.874H17.84V86.938V86.937Z" fill="white"/>
</svg>
