<svg width="90" height="114" viewBox="0 0 90 114" fill="none" xmlns="http://www.w3.org/2000/svg">
    <path d="M63.792 72.892L20.367 62.36L22.474 53.675L65.899 64.207L63.792 72.892Z" fill="#B58F52"/>
    <path d="M66.703 62.502L26.913 42.17L30.979 34.211L70.769 54.544L66.703 62.502Z" fill="#C78431"/>
    <path d="M72.832 51.739L39.182 22.339L45.061 15.61L78.712 45.008L72.832 51.738" fill="#E9812C"/>
    <path d="M82.09 42.277L56.995 5.30601L64.391 0.286011L89.485 37.259L82.091 42.278" fill="#E5712A"/>
    <path d="M63.097 83.755L18.479 81.319L18.966 72.395L63.584 74.831L63.097 83.755" fill="#9D8469"/>
    <path d="M72.348 104.776V67.752H81.277L81.283 113.714H0.515015L0.517015 67.714H9.45401V104.776H72.348Z" fill="#797B7B"/>
    <path d="M18.355 86.937H63.343V95.874H18.355V86.938V86.937Z" fill="#797B7B"/>
</svg>
