<svg width="66" height="40" viewBox="0 0 66 40" fill="none" xmlns="http://www.w3.org/2000/svg">
<path d="M15.6686 10.5078H28.0486V11.494H16.8038V18.9158H27.378V19.902H16.8038V28.0505H28.1775V29.0367H15.6686V10.5078ZM29.1575 10.5078H30.4731L36.302 18.6562L42.2598 10.5078L50.3633 0.157562L37.05 19.5127L43.9104 29.0367H42.5433L36.302 20.3691L30.0349 29.0367H28.6935L35.6055 19.5127L29.158 10.5078H29.1575ZM44.4007 11.494V10.5078H58.5082V11.494H52.0091V29.0362H50.874V11.494H44.4011H44.4007ZM0.181091 10.5078H1.59976L21.1602 39.8425L13.0766 29.0367L1.36731 11.9091L1.31576 29.0367H0.181091V10.5078ZM58.3944 27.7527C58.162 27.7527 57.9882 27.5727 57.9882 27.3402C57.9882 27.1073 58.162 26.9273 58.394 26.9273C58.6286 26.9273 58.7998 27.1073 58.7998 27.3402C58.7998 27.5727 58.6286 27.7527 58.394 27.7527H58.3944ZM59.5091 26.6669H60.1166C60.1251 26.9967 60.3655 27.218 60.7184 27.218C61.1131 27.218 61.3366 26.9802 61.3366 26.534V23.7091H61.9549V26.5367C61.9549 27.3402 61.4913 27.8029 60.7238 27.8029C60.0038 27.8029 59.5095 27.354 59.5095 26.6669H59.5091ZM62.7633 26.6313H63.3762C63.4286 27.0105 63.7984 27.2513 64.3313 27.2513C64.8278 27.2513 65.1922 26.9936 65.1922 26.6393C65.1922 26.3349 64.9606 26.1518 64.4331 26.0273L63.9198 25.9029C63.1998 25.734 62.8709 25.3847 62.8709 24.7976C62.8709 24.0856 63.4504 23.6118 64.3198 23.6118C65.1286 23.6118 65.7198 24.0856 65.7553 24.7585H65.1535C65.0958 24.3905 64.7758 24.1602 64.3118 24.1602C63.8229 24.1602 63.4975 24.3958 63.4975 24.7558C63.4975 25.0411 63.7073 25.2047 64.2264 25.3265L64.6651 25.4345C65.482 25.6256 65.8189 25.958 65.8189 26.5589C65.8189 27.3233 65.2278 27.8029 64.2842 27.8029C63.4011 27.8029 62.8073 27.3456 62.7633 26.6309V26.6313Z" fill="black"/>
</svg>
