<svg width="66" height="40" viewBox="0 0 66 40" fill="none" xmlns="http://www.w3.org/2000/svg">
<path d="M15.4876 10.5078H27.8676V11.494H16.6227V18.9158H27.1969V19.902H16.6227V28.0505H27.9964V29.0367H15.4876V10.5078ZM28.9764 10.5078H30.292L36.1209 18.6562L42.0787 10.5078L50.1822 0.157562L36.8689 19.5127L43.7293 29.0367H42.3622L36.1209 20.3691L29.8538 29.0367H28.5124L35.4244 19.5127L28.9769 10.5078H28.9764ZM44.2196 11.494V10.5078H58.3271V11.494H51.828V29.0362H50.6929V11.494H44.22H44.2196ZM0 10.5078H1.41867L20.9791 39.8425L12.8956 29.0367L1.18622 11.9091L1.13467 29.0367H0V10.5078ZM58.2133 27.7527C57.9809 27.7527 57.8071 27.5727 57.8071 27.3402C57.8071 27.1073 57.9809 26.9273 58.2129 26.9273C58.4476 26.9273 58.6187 27.1073 58.6187 27.3402C58.6187 27.5727 58.4476 27.7527 58.2129 27.7527H58.2133ZM59.328 26.6669H59.9356C59.944 26.9967 60.1844 27.218 60.5373 27.218C60.932 27.218 61.1556 26.9802 61.1556 26.534V23.7091H61.7738V26.5367C61.7738 27.3402 61.3102 27.8029 60.5427 27.8029C59.8227 27.8029 59.3284 27.354 59.3284 26.6669H59.328ZM62.5822 26.6313H63.1951C63.2476 27.0105 63.6173 27.2513 64.1502 27.2513C64.6467 27.2513 65.0111 26.9936 65.0111 26.6393C65.0111 26.3349 64.7796 26.1518 64.252 26.0273L63.7387 25.9029C63.0187 25.734 62.6898 25.3847 62.6898 24.7976C62.6898 24.0856 63.2693 23.6118 64.1387 23.6118C64.9476 23.6118 65.5387 24.0856 65.5742 24.7585H64.9724C64.9147 24.3905 64.5947 24.1602 64.1307 24.1602C63.6418 24.1602 63.3164 24.3958 63.3164 24.7558C63.3164 25.0411 63.5262 25.2047 64.0453 25.3265L64.484 25.4345C65.3009 25.6256 65.6378 25.958 65.6378 26.5589C65.6378 27.3233 65.0467 27.8029 64.1031 27.8029C63.22 27.8029 62.6262 27.3456 62.5822 26.6309V26.6313Z" fill="white"/>
</svg>
