<svg width="114" height="114" viewBox="0 0 114 114" fill="none" xmlns="http://www.w3.org/2000/svg">
<path d="M58.3001 38.55C45.9001 38.55 35.9001 48.55 35.9001 60.95C35.9001 73.35 45.9001 83.35 58.3001 83.35C70.7001 83.35 80.7001 73.35 80.7001 60.95C80.7001 48.55 70.7001 38.55 58.3001 38.55ZM74.1001 52.75L59.3001 60.45C58.9001 60.65 58.3001 60.35 58.3001 59.85V43.15C58.3001 42.75 58.6001 42.55 59.0001 42.55C65.6001 42.75 71.3001 46.45 74.4001 51.85C74.5001 52.15 74.4001 52.55 74.1001 52.75Z" fill="#5468FF"/>
<path d="M98.4001 0.75H15.6C7.40005 0.75 0.800049 7.35 0.800049 15.55V98.45C0.800049 106.65 7.50005 113.25 15.6 113.25H98.4001C106.6 113.25 113.2 106.65 113.2 98.45V15.55C113.2 7.35 106.6 0.75 98.4001 0.75ZM47.6 21.95C47.6 19.25 49.8 17.05 52.5 17.05H63.9001C66.6001 17.05 68.8 19.25 68.8 21.95V25.85C68.8 26.25 68.4 26.55 68 26.45C64.9 25.55 61.7001 25.15 58.4001 25.15C55 25.15 51.7001 25.65 48.5 26.55C48.1 26.65 47.6 26.35 47.6 25.95V21.95ZM26.3 38.15C24.4 36.25 24.4 33.15 26.3 31.25L28.6 28.95C30.5 27.05 33.6 27.05 35.5 28.95L37.4001 30.85C37.7001 31.15 37.6 31.65 37.3 31.85C35.7001 32.95 34.3001 34.25 32.9001 35.55C31.5001 36.95 30.3001 38.35 29.2001 39.95C28.9001 40.25 28.5 40.35 28.2001 40.05L26.3 38.15C26.3 38.15 26.4 38.15 26.3 38.15ZM58.3001 92.65C40.7001 92.65 26.5 78.45 26.5 60.85C26.5 43.25 40.7001 29.05 58.3001 29.05C75.9001 29.05 90.1001 43.25 90.1001 60.75C90.1001 78.25 75.9001 92.65 58.3001 92.65Z" fill="#5468FF"/>
</svg>
