<svg width="113" height="114" viewBox="0 0 113 114" fill="none" xmlns="http://www.w3.org/2000/svg">
<path d="M57.5001 38.55C45.1001 38.55 35.1001 48.55 35.1001 60.95C35.1001 73.35 45.1001 83.35 57.5001 83.35C69.9001 83.35 79.9001 73.35 79.9001 60.95C79.9001 48.55 69.9001 38.55 57.5001 38.55ZM73.3001 52.75L58.5001 60.45C58.1001 60.65 57.5001 60.35 57.5001 59.85V43.15C57.5001 42.75 57.8001 42.55 58.2001 42.55C64.8001 42.75 70.5001 46.45 73.6001 51.85C73.7001 52.15 73.6001 52.55 73.3001 52.75Z" fill="white"/>
<path d="M97.6 0.75H14.8C6.6 0.75 0 7.35 0 15.55V98.45C0 106.65 6.7 113.25 14.8 113.25H97.6C105.8 113.25 112.4 106.65 112.4 98.45V15.55C112.4 7.35 105.8 0.75 97.6 0.75ZM46.8 21.95C46.8 19.25 49 17.05 51.7 17.05H63.1C65.8 17.05 68 19.25 68 21.95V25.85C68 26.25 67.6 26.55 67.2 26.45C64.1 25.55 60.9 25.15 57.6 25.15C54.2 25.15 50.9 25.65 47.7 26.55C47.3 26.65 46.8 26.35 46.8 25.95V21.95ZM25.5 38.15C23.6 36.25 23.6 33.15 25.5 31.25L27.8 28.95C29.7 27.05 32.8 27.05 34.7 28.95L36.6 30.85C36.9 31.15 36.8 31.65 36.5 31.85C34.9 32.95 33.5 34.25 32.1 35.55C30.7 36.95 29.5 38.35 28.4 39.95C28.1 40.25 27.7 40.35 27.4 40.05L25.5 38.15C25.5 38.15 25.6 38.15 25.5 38.15ZM57.5 92.65C39.9 92.65 25.7 78.45 25.7 60.85C25.7 43.25 39.9 29.05 57.5 29.05C75.1 29.05 89.3 43.25 89.3 60.75C89.3 78.25 75.1 92.65 57.5 92.65Z" fill="white"/>
</svg>
